<svg width="163" height="118" viewBox="0 0 163 118" fill="none" xmlns="http://www.w3.org/2000/svg">
<path d="M143.898 59H134.984C134.284 59 133.711 59.4148 133.711 59.9219V96.7969H29.2891V21.2031H80.2266C80.927 21.2031 81.5 20.7883 81.5 20.2812V13.8281C81.5 13.3211 80.927 12.9062 80.2266 12.9062H22.9219C20.1044 12.9062 17.8281 14.5541 17.8281 16.5938V101.406C17.8281 103.446 20.1044 105.094 22.9219 105.094H140.078C142.896 105.094 145.172 103.446 145.172 101.406V59.9219C145.172 59.4148 144.599 59 143.898 59Z" fill="black"/>
<path d="M56.652 61.6389L56.3495 75.3402C56.3336 76.3658 57.4797 77.207 58.8964 77.207H58.9601L77.7433 76.8728C78.0616 76.8613 78.38 76.7691 78.6028 76.6078L144.806 28.7855C145.299 28.4283 145.299 27.8406 144.806 27.4834L125.02 13.1713C124.765 12.9869 124.447 12.9062 124.112 12.9062C123.778 12.9062 123.46 12.9984 123.205 13.1713L57.0181 60.9936C56.7882 61.1676 56.6574 61.3981 56.652 61.6389ZM66.7599 64.3584L124.112 22.9316L131.307 28.1287L73.923 69.5785L66.6485 69.7053L66.7599 64.3584Z" fill="black"/>
</svg>
