<svg width="36" height="33" viewBox="0 0 36 33" fill="none" xmlns="http://www.w3.org/2000/svg">
<path fill-rule="evenodd" clip-rule="evenodd" d="M23.9556 12.375C23.9556 13.8337 23.3246 15.2326 22.2015 16.2641C21.0783 17.2955 19.555 17.875 17.9667 17.875C16.3783 17.875 14.855 17.2955 13.7319 16.2641C12.6088 15.2326 11.9778 13.8337 11.9778 12.375C11.9778 10.9163 12.6088 9.51736 13.7319 8.48591C14.855 7.45446 16.3783 6.875 17.9667 6.875C19.555 6.875 21.0783 7.45446 22.2015 8.48591C23.3246 9.51736 23.9556 10.9163 23.9556 12.375ZM20.9611 12.375C20.9611 13.1043 20.6456 13.8038 20.0841 14.3195C19.5225 14.8353 18.7608 15.125 17.9667 15.125C17.1725 15.125 16.4108 14.8353 15.8493 14.3195C15.2877 13.8038 14.9722 13.1043 14.9722 12.375C14.9722 11.6457 15.2877 10.9462 15.8493 10.4305C16.4108 9.91473 17.1725 9.625 17.9667 9.625C18.7608 9.625 19.5225 9.91473 20.0841 10.4305C20.6456 10.9462 20.9611 11.6457 20.9611 12.375Z" fill="white"/>
<path fill-rule="evenodd" clip-rule="evenodd" d="M17.9668 1.375C8.87113 1.375 1.49731 8.14688 1.49731 16.5C1.49731 24.8531 8.87113 31.625 17.9668 31.625C27.0624 31.625 34.4362 24.8531 34.4362 16.5C34.4362 8.14688 27.0624 1.375 17.9668 1.375ZM4.49176 16.5C4.49176 19.3738 5.55928 22.0192 7.34846 24.1203C8.60497 22.6049 10.226 21.3768 12.0848 20.5319C13.9437 19.6871 15.99 19.2483 18.0641 19.25C20.1113 19.2482 22.1319 19.6756 23.972 20.4996C25.8121 21.3236 27.4232 22.5224 28.6824 24.0047C29.9796 22.4422 30.8531 20.6184 31.2305 18.6843C31.6079 16.7502 31.4783 14.7614 30.8526 12.8824C30.2268 11.0033 29.1229 9.28819 27.6321 7.8788C26.1412 6.46941 24.3064 5.40631 22.2793 4.77745C20.2523 4.14859 18.0913 3.97206 15.9752 4.26246C13.8592 4.55286 11.8488 5.30185 10.1105 6.44745C8.37218 7.59305 6.9559 9.10232 5.97884 10.8504C5.00178 12.5985 4.49203 14.5351 4.49176 16.5ZM17.9668 28.875C14.8734 28.8793 11.8735 27.902 9.47451 26.1085C10.4401 24.839 11.7253 23.8025 13.2209 23.0872C14.7164 22.3719 16.3779 21.9989 18.0641 22C19.7292 21.9988 21.3707 22.3624 22.8521 23.0607C24.3335 23.759 25.6121 24.7718 26.5818 26.015C24.1642 27.8667 21.1148 28.8791 17.9668 28.875Z" fill="white"/>
</svg>
