<svg width="42" height="29" viewBox="0 0 42 29" fill="none" xmlns="http://www.w3.org/2000/svg">
<g clip-path="url(#clip0_136_645)">
<path d="M20.1172 0.676173C20.736 0.24322 21.5753 0 22.4503 0C23.3254 0 24.1646 0.24322 24.7835 0.676173L39.6337 11.0687C40.2524 11.5018 40.5999 12.0891 40.5999 12.7014C40.5999 13.3138 40.2524 13.9011 39.6337 14.3342L24.7835 24.7267C24.1611 25.1474 23.3275 25.3802 22.4622 25.3749C21.5969 25.3697 20.7693 25.1268 20.1574 24.6986C19.5455 24.2704 19.1985 23.6912 19.191 23.0856C19.1834 22.4801 19.5161 21.8967 20.1172 21.4612L29.0504 15.0109H-2.30005C-3.17528 15.0109 -4.01466 14.7676 -4.63354 14.3345C-5.25241 13.9014 -5.6001 13.3139 -5.6001 12.7014C-5.6001 12.0889 -5.25241 11.5015 -4.63354 11.0684C-4.01466 10.6353 -3.17528 10.392 -2.30005 10.392H29.0504L20.1172 3.94173C19.4985 3.50864 19.151 2.92133 19.151 2.30895C19.151 1.69657 19.4985 1.10926 20.1172 0.676173Z" fill="black"/>
</g>
<defs>
<clipPath id="clip0_136_645">
<rect width="42" height="29" fill="white"/>
</clipPath>
</defs>
</svg>
