<svg width="84" height="87" viewBox="0 0 84 87" fill="none" xmlns="http://www.w3.org/2000/svg">
<path d="M72.8438 51.6562C72.8438 52.197 72.6363 52.7157 72.2671 53.0981C71.8979 53.4805 71.3971 53.6953 70.875 53.6953H62.3438V60.4922H68.25C68.7721 60.4922 69.2729 60.707 69.6421 61.0894C70.0113 61.4718 70.2188 61.9905 70.2188 62.5312C70.2188 63.072 70.0113 63.5907 69.6421 63.9731C69.2729 64.3555 68.7721 64.5703 68.25 64.5703H62.3438V70.6875C62.3438 71.2283 62.1363 71.7469 61.7671 72.1293C61.3979 72.5117 60.8971 72.7266 60.375 72.7266C59.8529 72.7266 59.3521 72.5117 58.9829 72.1293C58.6137 71.7469 58.4062 71.2283 58.4062 70.6875V51.6562C58.4062 51.1155 58.6137 50.5968 58.9829 50.2144C59.3521 49.832 59.8529 49.6172 60.375 49.6172H70.875C71.3971 49.6172 71.8979 49.832 72.2671 50.2144C72.6363 50.5968 72.8438 51.1155 72.8438 51.6562ZM29.5312 58.4531C29.5312 60.7966 28.6324 63.044 27.0325 64.7011C25.4326 66.3581 23.2626 67.2891 21 67.2891H17.7188V70.6875C17.7187 71.2283 17.5113 71.7469 17.1421 72.1293C16.7729 72.5117 16.2721 72.7266 15.75 72.7266C15.2279 72.7266 14.7271 72.5117 14.3579 72.1293C13.9887 71.7469 13.7813 71.2283 13.7812 70.6875V51.6562C13.7812 51.1155 13.9887 50.5968 14.3579 50.2144C14.7271 49.832 15.2279 49.6172 15.75 49.6172H21C23.2626 49.6172 25.4326 50.5481 27.0325 52.2052C28.6324 53.8622 29.5312 56.1097 29.5312 58.4531ZM25.5938 58.4531C25.5938 57.1913 25.1098 55.9811 24.2483 55.0888C23.3868 54.1966 22.2183 53.6953 21 53.6953H17.7188V63.2109H21C22.2183 63.2109 23.3868 62.7097 24.2483 61.8174C25.1098 60.9251 25.5938 59.715 25.5938 58.4531ZM53.1562 61.1719C53.1562 64.2364 51.9809 67.1753 49.8887 69.3423C47.7965 71.5092 44.9588 72.7266 42 72.7266H36.75C36.2279 72.7266 35.7271 72.5117 35.3579 72.1293C34.9887 71.7469 34.7812 71.2283 34.7812 70.6875V51.6562C34.7812 51.1155 34.9887 50.5968 35.3579 50.2144C35.7271 49.832 36.2279 49.6172 36.75 49.6172H42C44.9588 49.6172 47.7965 50.8346 49.8887 53.0015C51.9809 55.1684 53.1563 58.1074 53.1562 61.1719ZM49.2188 61.1719C49.2188 59.189 48.4582 57.2873 47.1044 55.8851C45.7506 54.483 43.9145 53.6953 42 53.6953H38.7188V68.6484H42C43.9145 68.6484 45.7506 67.8607 47.1044 66.4586C48.4582 65.0565 49.2188 63.1548 49.2188 61.1719ZM13.7812 38.0625V13.5938C13.7813 12.3319 14.2652 11.1217 15.1267 10.2295C15.9882 9.33721 17.1567 8.83594 18.375 8.83594H49.875C50.134 8.83573 50.3905 8.88845 50.6298 8.99109C50.8691 9.09373 51.0865 9.24426 51.2695 9.43406L69.6445 28.4653C70.0126 28.8479 70.2192 29.3661 70.2188 29.9062V38.0625C70.2188 38.6033 70.0113 39.1219 69.6421 39.5043C69.2729 39.8867 68.7721 40.1016 68.25 40.1016C67.7279 40.1016 67.2271 39.8867 66.8579 39.5043C66.4887 39.1219 66.2812 38.6033 66.2812 38.0625V31.9453H49.875C49.3529 31.9453 48.8521 31.7305 48.4829 31.3481C48.1137 30.9657 47.9062 30.447 47.9062 29.9062V12.9141H18.375C18.201 12.9141 18.034 12.9857 17.911 13.1131C17.7879 13.2406 17.7188 13.4135 17.7188 13.5938V38.0625C17.7187 38.6033 17.5113 39.1219 17.1421 39.5043C16.7729 39.8867 16.2721 40.1016 15.75 40.1016C15.2279 40.1016 14.7271 39.8867 14.3579 39.5043C13.9887 39.1219 13.7813 38.6033 13.7812 38.0625ZM51.8438 27.8672H63.4988L51.8438 15.7959V27.8672Z" fill="black"/>
</svg>
